<?xml version="1.0" encoding="iso-8859-1"?>
<!-- Generator: Adobe Illustrator 21.1.0, SVG Export Plug-In . SVG Version: 6.00 Build 0)  -->
<svg version="1.1" id="Layer_1" xmlns="http://www.w3.org/2000/svg" xmlns:xlink="http://www.w3.org/1999/xlink" x="0px" y="0px"
	 viewBox="0 0 24 24" enable-background="new 0 0 24 24" xml:space="preserve">
<g>
	<path fill="#303C42" d="M1.5,22c-0.2314453,0-0.4326172-0.1586914-0.4863281-0.3837891
		c-0.0537109-0.2255859,0.0541992-0.4584961,0.2612305-0.5629883c0.0888672-0.0454102,2.1625926-1.1484375,2.6279297-4.2817383
		C1.4179688,15.1630859,0,12.8920898,0,10.5C0,5.8129883,5.3833008,2,12,2s12,3.8129883,12,8.5S18.6166992,19,12,19
		c-0.4648438,0-0.9467773-0.0239258-1.503418-0.0751953C6.2236328,21.9550781,1.6938477,21.9995117,1.5009766,22
		C1.5004883,22,1.5004883,22,1.5,22z"/>
	<path fill="#44B3E6" d="M12,3C5.9345703,3,1,6.3642578,1,10.5c0,2.1225586,1.3481445,4.1601563,3.6992188,5.5908203
		c0.1660156,0.1010742,0.2583008,0.2890625,0.2373047,0.4819336c-0.2270508,2.065918-1.0712891,3.4291992-1.8378906,4.265625
		c1.6723633-0.2666016,4.4042969-0.9711914,6.9648438-2.8334961c0.0991211-0.0722656,0.2211914-0.1049805,0.34375-0.0932617
		C11.0107422,17.972168,11.5170898,18,12,18c6.0654297,0,11-3.3642578,11-7.5S18.0654297,3,12,3z"/>
	<path opacity="0.1" fill="#010101" d="M20.2730713,5.572998C21.052063,6.6015015,21.5,7.7647705,21.5,9
		c0,4.1357422-4.9345703,7.5-11,7.5c-0.4829102,0-0.9892578-0.027832-1.5927734-0.0883789
		c-0.1225586-0.0117188-0.2446289,0.0209961-0.34375,0.0932617c-1.3865967,1.0084839-2.8181152,1.6695557-4.1097412,2.1133423
		c-0.369873,0.9727783-0.8774414,1.6989746-1.3551025,2.2201538c1.6723633-0.2666016,4.4042969-0.9711914,6.9648438-2.8334961
		c0.0991211-0.0722656,0.2211914-0.1049805,0.34375-0.0932617C11.0107422,17.972168,11.5170898,18,12,18
		c6.0654297,0,11-3.3642578,11-7.5C23,8.6135254,21.9655151,6.892395,20.2730713,5.572998z"/>
	<linearGradient id="SVGID_1_" gradientUnits="userSpaceOnUse" x1="0.4169948" y1="8.2359686" x2="21.17976" y2="17.9178047">
		<stop  offset="0" style="stop-color:#FFFFFF;stop-opacity:0.2"/>
		<stop  offset="1" style="stop-color:#FFFFFF;stop-opacity:0"/>
	</linearGradient>
	<path fill="url(#SVGID_1_)" d="M1.5,22c-0.2314453,0-0.4326172-0.1586914-0.4863281-0.3837891
		c-0.0537109-0.2255859,0.0541992-0.4584961,0.2612305-0.5629883c0.0888672-0.0454102,2.1625926-1.1484375,2.6279297-4.2817383
		C1.4179688,15.1630859,0,12.8920898,0,10.5C0,5.8129883,5.3833008,2,12,2s12,3.8129883,12,8.5S18.6166992,19,12,19
		c-0.4648438,0-0.9467773-0.0239258-1.503418-0.0751953C6.2236328,21.9550781,1.6938477,21.9995117,1.5009766,22
		C1.5004883,22,1.5004883,22,1.5,22z"/>
</g>
<g>
</g>
<g>
</g>
<g>
</g>
<g>
</g>
<g>
</g>
<g>
</g>
<g>
</g>
<g>
</g>
<g>
</g>
<g>
</g>
<g>
</g>
<g>
</g>
<g>
</g>
<g>
</g>
<g>
</g>
</svg>
